# xmcd
#
# Track frame offsets:
#  150
#  9358
#  22031
#  35320
#  46077
#  59918
#  71989
#  91803
#  106290
#  116977
#  126986
#  139689
#
# Disc length: 2088 seconds
#
# Revision: 0
# Processed by: cddbd v1.5.1PL2 Copyright (c) Steve Scherf et al.
# Submitted via: Collectorz.com_Music_Collector 6.9
#
DISCID=aa08260c
DTITLE=Jody Nix - Play Me Something I Can Swing To
DYEAR=1900
DGENRE=
TTITLE0=Mama Was The Rose Of San Antone
TTITLE1=Down In Mexico
TTITLE2=You Don't Care What Happens To Me
TTITLE3=I'll Go To A Stranger
TTITLE4=Just Thought I'd Let You Know
TTITLE5=Leavin' And Sayin' Goodbye
TTITLE6=Night Life
TTITLE7=One More Time
TTITLE8=Play Me Something I Can Swing To
TTITLE9=Riding My Thumb To Mexico
TTITLE10=Snow Deer
TTITLE11=Soft Rain
EXTD=
EXTT0=
EXTT1=
EXTT2=
EXTT3=
EXTT4=
EXTT5=
EXTT6=
EXTT7=
EXTT8=
EXTT9=
EXTT10=
EXTT11=
PLAYORDER=
